<svg xmlns="http://www.w3.org/2000/svg" viewBox="0 0 32 32">
  <circle cx="16" cy="18" r="12" fill="#3A1A15"/>
  <circle cx="16" cy="18" r="12" fill="none" stroke="#B99552" stroke-width="0.8"/>
  <!-- lotus petals -->
  <g fill="none" stroke="#E8D9A8" stroke-width="1.1" stroke-linejoin="round" stroke-linecap="round">
    <path d="M16 24c-1.6-2-2.4-4-2.4-6.2 0 0 1 1 2.4 1s2.4-1 2.4-1c0 2.2-.8 4.2-2.4 6.2Z"/>
    <path d="M16 24c-3-.6-5-2-6-4.2 0 0 1.4.4 2.6-.2 1-.5 1.5-1.6 1.5-1.6.9 2 1.5 4 1.9 6Z"/>
    <path d="M16 24c3-.6 5-2 6-4.2 0 0-1.4.4-2.6-.2-1-.5-1.5-1.6-1.5-1.6-.9 2-1.5 4-1.9 6Z"/>
  </g>
  <circle cx="16" cy="18" r="2.4" fill="none" stroke="#E0B94E" stroke-width="1"/>
  <!-- flame -->
  <path d="M16 3.5c1.7 1.9 2.6 3.4 2.6 4.9a2.6 2.6 0 1 1-5.2 0c0-1.5.9-3 2.6-4.9Z" fill="#E0B94E"/>
  <path d="M16 5.6c.9 1 1.3 1.9 1.3 2.7a1.3 1.3 0 1 1-2.6 0c0-.8.4-1.7 1.3-2.7Z" fill="#F7F3EC"/>
</svg>
